<svg xmlns="http://www.w3.org/2000/svg" width="36" height="36" viewBox="0 0 36 36">
    <defs>
        <style>
            .cls-1{fill:none}.cls-2{clip-path:url(#clip-path)}.cls-3{fill:#fff}
        </style>
        <clipPath id="clip-path">
            <path d="M0 0h36v36H0z" class="cls-1"/>
        </clipPath>
    </defs>
    <g id="Dashboard" class="cls-2">
        <path id="Rectangle_2443" d="M0 0h36v36H0z" class="cls-1" data-name="Rectangle 2443"/>
        <g id="Group_1490" data-name="Group 1490" transform="translate(19478 17557)">
            <path id="Path_4114" d="M36.083 50.165a10.083 10.083 0 0 0 10.083-10.083.917.917 0 0 0-.917-.917H37v-8.248a.917.917 0 0 0-.917-.917 10.082 10.082 0 1 0 0 20.165zm6.417-4.94L38.3 41h5.986a8.249 8.249 0 0 1-1.76 4.225zm-7.333-13.341v8.2a.917.917 0 0 0 .27.646l5.789 5.793a8.249 8.249 0 1 1-6.059-14.638z" class="cls-3" data-name="Path 4114" transform="translate(-19497 -17578.168)"/>
            <path id="Path_4115" d="M54.917 26a.917.917 0 0 0-.917.917v7.333a.917.917 0 0 0 .917.917h7.333a.917.917 0 0 0 .917-.917 8.25 8.25 0 0 0-8.25-8.25zm.917 7.333V27.9a6.416 6.416 0 0 1 5.436 5.435z" class="cls-3" data-name="Path 4115" transform="translate(-19512.166 -17576)"/>
        </g>
    </g>
</svg>
