<svg xmlns="http://www.w3.org/2000/svg" width="36" height="36" viewBox="0 0 36 36">
    <defs>
        <style>
            .cls-1{fill:none}.cls-2{clip-path:url(#clip-path)}.cls-3{fill:#fff;stroke:#fff;stroke-width:.5px}
        </style>
        <clipPath id="clip-path">
            <path d="M0 0h36v36H0z" class="cls-1"/>
        </clipPath>
    </defs>
    <g id="Search" class="cls-2">
        <path id="Rectangle_2446" d="M0 0h36v36H0z" class="cls-1" data-name="Rectangle 2446"/>
        <path id="Path_3715" d="M32.926 31.6l-4.414-4.42a7.379 7.379 0 1 0-5.894 2.938 7.268 7.268 0 0 0 4.464-1.506L31.52 33a.987.987 0 0 0 .715.3 1.029 1.029 0 0 0 .715-.3 1.008 1.008 0 0 0-.024-1.4zm-10.284-3.485a5.407 5.407 0 1 1 3.823-9.235 5.28 5.28 0 0 1 1.578 3.827 5.423 5.423 0 0 1-1.578 3.827 5.308 5.308 0 0 1-3.823 1.581z" class="cls-3" data-name="Path 3715" transform="translate(-5.725 -6.8)"/>
    </g>
</svg>
