<svg xmlns="http://www.w3.org/2000/svg" xmlns:xlink="http://www.w3.org/1999/xlink" width="36" height="36" viewBox="0 0 36 36"><defs><clipPath id="a"><rect width="36" height="36" transform="translate(-291 520)" fill="none"/></clipPath><clipPath id="c"><rect width="36" height="36"/></clipPath></defs><g id="b" clip-path="url(#c)"><g transform="translate(291 -520)"><g clip-path="url(#a)"><rect width="36" height="36" transform="translate(-291 520)" fill="none"/><path d="M-263.622,544.623l-4.263-4.269a7.575,7.575,0,0,0,1.334-5.477,7.576,7.576,0,0,0-2.964-5.031,7.584,7.584,0,0,0-5.652-1.462,7.576,7.576,0,0,0-5.032,2.964A7.58,7.58,0,0,0-281.661,537a7.576,7.576,0,0,0,2.964,5.031,7.681,7.681,0,0,0,4.589,1.537h.031a7.566,7.566,0,0,0,4.411-1.427l4.281,4.233a1.244,1.244,0,0,0,.888.376h.01a1.277,1.277,0,0,0,.895-.38A1.254,1.254,0,0,0-263.622,544.623Zm-10.419-3.558h-.042a5.164,5.164,0,0,1-5.153-5.161,5.125,5.125,0,0,1,1.514-3.646,5.121,5.121,0,0,1,3.643-1.507h.005a5.127,5.127,0,0,1,3.639,1.507,5.058,5.058,0,0,1,1.5,3.649,5.142,5.142,0,0,1-1.506,3.652A5.087,5.087,0,0,1-274.041,541.065Z"/></g></g></g></svg>