<svg xmlns="http://www.w3.org/2000/svg" width="36" height="36" viewBox="0 0 36 36">
    <defs>
        <style>
            .cls-1{fill:none}.cls-2{clip-path:url(#clip-path)}.cls-3{fill:#fff}
        </style>
        <clipPath id="clip-path">
            <path d="M0 0h36v36H0z" class="cls-1"/>
        </clipPath>
    </defs>
    <g id="Settings" class="cls-2">
        <path id="Rectangle_2444" d="M0 0h36v36H0z" class="cls-1" data-name="Rectangle 2444"/>
        <g id="Group_1489" data-name="Group 1489" transform="translate(8 7)">
            <path id="Path_544" d="M45.643 49.333A3.667 3.667 0 1 0 42 45.667a3.655 3.655 0 0 0 3.643 3.666zm0-5.5a1.833 1.833 0 1 1-1.821 1.833 1.827 1.827 0 0 1 1.821-1.833z" class="cls-3" data-name="Path 544" transform="translate(-35.642 -34.667)"/>
            <path id="Path_545" d="M28.316 42.01a10.429 10.429 0 0 0 .551.949 2.636 2.636 0 0 0 3.1 1.027l1.143-.412a8.1 8.1 0 0 0 1.744 1.017l.219 1.205A2.66 2.66 0 0 0 37.583 48h.911A2.66 2.66 0 0 0 41 45.8l.228-1.215a8.1 8.1 0 0 0 1.735-1.008l1.143.413a2.637 2.637 0 0 0 3.106-1.036 9.436 9.436 0 0 0 .543-.954 2.633 2.633 0 0 0-.665-3.208L46.18 38a8.009 8.009 0 0 0 0-2.017l.911-.788a2.679 2.679 0 0 0 .669-3.208 10.43 10.43 0 0 0-.551-.949 2.636 2.636 0 0 0-3.1-1.027l-1.143.413a7.915 7.915 0 0 0-1.744-1.017l-.215-1.207a2.66 2.66 0 0 0-2.513-2.2h-.947a2.66 2.66 0 0 0-2.5 2.2l-.191 1.215a7.916 7.916 0 0 0-1.735 1.008l-1.143-.412a2.636 2.636 0 0 0-3.106 1.036 9.893 9.893 0 0 0-.546.953 2.679 2.679 0 0 0 .665 3.208l.911.788a8.009 8.009 0 0 0 0 2.017l-.911.788a2.647 2.647 0 0 0-.675 3.209zm1.849-1.833l1.311-1.118a.92.92 0 0 0 .305-.871 6.2 6.2 0 0 1 0-2.411.92.92 0 0 0-.305-.871l-1.311-1.114a.819.819 0 0 1-.223-.981 8.571 8.571 0 0 1 .455-.8.812.812 0 0 1 .956-.293l1.621.582a.906.906 0 0 0 .911-.17 6.365 6.365 0 0 1 2.067-1.2.915.915 0 0 0 .6-.7l.31-1.71a.849.849 0 0 1 .792-.688 7.268 7.268 0 0 1 .774 0 .849.849 0 0 1 .8.688l.31 1.714a.915.915 0 0 0 .6.7 6.365 6.365 0 0 1 2.067 1.2.906.906 0 0 0 .911.17l1.621-.582a.812.812 0 0 1 .956.293 8.57 8.57 0 0 1 .455.8.819.819 0 0 1-.232.976L44.6 34.91a.92.92 0 0 0-.31.871 6.2 6.2 0 0 1 0 2.411.92.92 0 0 0 .31.871l1.307 1.146a.819.819 0 0 1 .223.981 8.573 8.573 0 0 1-.455.8.808.808 0 0 1-.956.293L43.1 41.7a.906.906 0 0 0-.911.17 6.365 6.365 0 0 1-2.067 1.2.915.915 0 0 0-.6.7l-.31 1.71a.849.849 0 0 1-.792.688 7.274 7.274 0 0 1-.774 0 .849.849 0 0 1-.8-.692l-.31-1.71a.915.915 0 0 0-.6-.7 6.365 6.365 0 0 1-2.067-1.2.895.895 0 0 0-.9-.17l-1.621.582a.808.808 0 0 1-.956-.293 8.57 8.57 0 0 1-.455-.8.819.819 0 0 1 .223-.976z" class="cls-3" data-name="Path 545" transform="translate(-28.037 -26)"/>
        </g>
    </g>
</svg>
